# xmcd
#
# Track frame offsets:
#	150
#	15243
#	24884
#	38619
#	50710
#	61323
#	68503
#	77734
#	92094
#	105465
#	115897
#	129906
#	139672
#	151281
#	163201
#	173683
#	184165
#	195945
#	217722
#	227822
#	240786
#	256707
#	271168
#	282291
#
# Disc length: 4015 seconds
#
# Revision: 1
# Processed by: cddbd v1.5.1PL0 Copyright (c) Steve Scherf et al.
# Submitted via: audiograbber 1.83.01
#
DISCID=240fad18
DTITLE=Nada Urbankova - Nada Urbankova-Nada Urbankova zpiva Jiriho Grossmanna
DYEAR=1900
DGENRE=
TTITLE0=Zavidim
TTITLE1=Drahy muj
TTITLE2=Tobe nalezel cas
TTITLE3=Svatebni pruvod
TTITLE4=Tata silak
TTITLE5=Adios
TTITLE6=Hospoda blizko mlyna
TTITLE7=Rodicovske sdruzeni
TTITLE8=Jackson
TTITLE9=V udoli blizko drahy
TTITLE10=Mavej vic
TTITLE11=Skala
TTITLE12=Bez cile bloumat
TTITLE13=O, ty to nepochopis
TTITLE14=Vlak do detstvi
TTITLE15=Subreta
TTITLE16=Ja zahadou se trapim
TTITLE17=Slib
TTITLE18=Pulnoc je obdobi zle
TTITLE19=Vzdalena
TTITLE20=Za vlidny slovo jen
TTITLE21=Prosim o pochopeni
TTITLE22=Vzdalene bubny
TTITLE23=Zavidim II
EXTD=
EXTT0=
EXTT1=
EXTT2=
EXTT3=
EXTT4=
EXTT5=
EXTT6=
EXTT7=
EXTT8=
EXTT9=
EXTT10=
EXTT11=
EXTT12=
EXTT13=
EXTT14=
EXTT15=
EXTT16=
EXTT17=
EXTT18=
EXTT19=
EXTT20=
EXTT21=
EXTT22=
EXTT23=
PLAYORDER=
